/* XPM */
static char *_a8f15decf77400b9c130bd6f20d5c7d1A1hoKRWShOl6KXr[] = {
/* columns rows colors chars-per-pixel */
"64 64 230 2 ",
"   c #737B48",
".  c #BD7018",
"X  c #B76B0B",
"o  c #C86A00",
"O  c #DE6A00",
"+  c #D26500",
"@  c #C97300",
"#  c #CB7804",
"$  c #DB7400",
"%  c #DC7901",
"&  c #DE790B",
"*  c #D67909",
"=  c #C97815",
"-  c #D37B19",
";  c #E76F00",
":  c #E27400",
">  c #ED7500",
",  c #E37D03",
"<  c #EC7A03",
"1  c #E37D0B",
"2  c #EB7A0A",
"3  c #F27300",
"4  c #F37C02",
"5  c #FD7E02",
"6  c #FB750A",
"7  c #F97605",
"8  c #E27C12",
"9  c #E97719",
"0  c #F37912",
"q  c #D06C3A",
"w  c #DF7829",
"e  c #F46F24",
"r  c #E57C21",
"t  c #7EA31A",
"y  c #7B9533",
"u  c #76B331",
"i  c #7E8365",
"p  c #87B516",
"a  c #819138",
"s  c #A69A22",
"d  c #80AF2F",
"f  c #84A43F",
"g  c #C98A07",
"h  c #D48202",
"j  c #DB8104",
"k  c #DD8903",
"l  c #DC830D",
"z  c #D98C0B",
"x  c #D38808",
"c  c #CA9000",
"v  c #DE920D",
"b  c #CB8719",
"n  c #DB8611",
"m  c #D38A1D",
"M  c #DA8B15",
"N  c #D0951F",
"B  c #E58204",
"V  c #EC8403",
"C  c #E48A02",
"Z  c #EB8B01",
"A  c #E6820A",
"S  c #E9850C",
"D  c #E58D08",
"F  c #ED890D",
"G  c #F48401",
"H  c #FD8301",
"J  c #F38B03",
"K  c #FC8D02",
"L  c #F4830B",
"P  c #FD830C",
"I  c #F4890D",
"U  c #FA8C0D",
"Y  c #EA9401",
"T  c #FD9103",
"R  c #F29200",
"E  c #EB8412",
"W  c #E48813",
"Q  c #ED8A12",
"!  c #E3841D",
"~  c #E38C1A",
"^  c #EE8C1B",
"/  c #E78314",
"(  c #F38513",
")  c #FA8512",
"_  c #F28A14",
"`  c #FD8A14",
"'  c #FA861A",
"]  c #EB9118",
"[  c #F2911A",
"{  c #FC971B",
"}  c #FDA014",
"|  c #C4842D",
" . c #D78625",
".. c #D7902A",
"X. c #C18233",
"o. c #D58A37",
"O. c #D69736",
"+. c #E48623",
"@. c #E88C27",
"#. c #FA8623",
"$. c #EC9625",
"%. c #F49325",
"&. c #FF9125",
"*. c #F79936",
"=. c #EA8F3A",
"-. c #C6A03F",
";. c #D3A73E",
":. c #F6A63B",
">. c #9BC933",
",. c #909D57",
"<. c #BB8D40",
"1. c #B6975E",
"2. c #89A04E",
"3. c #91AD4B",
"4. c #95A756",
"5. c #AAB856",
"6. c #8C926E",
"7. c #949B72",
"8. c #8FB663",
"9. c #95A471",
"0. c #AEAE66",
"q. c #A0A87F",
"w. c #B3B674",
"e. c #CF924F",
"r. c #DC974C",
"t. c #D59648",
"y. c #D39A53",
"u. c #D59C5B",
"i. c #F59C4C",
"p. c #E29F50",
"a. c #E68D4B",
"s. c #D9A051",
"d. c #D8AA48",
"f. c #E8A645",
"g. c #E7A957",
"h. c #E9B05F",
"j. c #F5B053",
"k. c #FCA848",
"l. c #D59A62",
"z. c #DDA765",
"x. c #EDB26E",
"c. c #EBAF7D",
"v. c #FBAA76",
"b. c #E7B67A",
"n. c #FCBC74",
"m. c #AECE69",
"M. c #A8D478",
"N. c #A6EB7E",
"B. c #E1C059",
"V. c #FAC35C",
"C. c #EEC37E",
"Z. c #FFD47A",
"A. c #B4B89D",
"S. c #A3BAA8",
"D. c #DFBB94",
"F. c #D7B498",
"G. c #FDA58D",
"H. c #FBBC86",
"J. c #E8BF87",
"K. c #B3CD90",
"L. c #B4CF91",
"P. c #C5D896",
"I. c #C7CD93",
"U. c #F8C786",
"Y. c #F8C499",
"T. c #F6D091",
"R. c #F0CD92",
"E. c #C1DCB3",
"W. c #D5DABE",
"Q. c #CBD0AC",
"!. c #E7D6A6",
"~. c #F9D8A8",
"^. c #FFCDB9",
"/. c #FEDAB2",
"(. c #FEDBBB",
"). c #F7D7B4",
"_. c #D8E3AB",
"`. c #FFEDA9",
"'. c #FFE9B2",
"]. c #FFE8BE",
"[. c #E9F1BE",
"{. c #D2D8CE",
"}. c #CADFD6",
"|. c #CCD3C3",
" X c #E6DFCD",
".X c #F7D7C5",
"XX c #D5E7CC",
"oX c #DEF2CF",
"OX c #D1E7D0",
"+X c #CEE8CB",
"@X c #ECE6CE",
"#X c #FEE1CC",
"$X c #FFEECB",
"%X c #F6E7C7",
"&X c #F9FFCA",
"*X c #EDE4DC",
"=X c #E4E8D8",
"-X c #FFEDD9",
";X c #FCE9D4",
":X c #EDFFD2",
">X c #FEF4DC",
",X c #FDFDDC",
"<X c #F8F7D8",
"1X c #ECF3CA",
"2X c #FDE8E5",
"3X c #EDFAE5",
"4X c #FFF4E5",
"5X c #F1FEE4",
"6X c #FDFDE4",
"7X c #F4F6EC",
"8X c #FBF4EB",
"9X c #F6FBEC",
"0X c #FDFEEC",
"qX c #F3F3E4",
"wX c #E5EDF7",
"eX c #EFEEF2",
"rX c #EBEEFF",
"tX c #F6ECF9",
"yX c #EAF4FE",
"uX c #E7FFFF",
"iX c #ECFFFF",
"pX c #EAF5F5",
"aX c #F4F5F4",
"sX c #FCF4F5",
"dX c #F5FDF4",
"fX c #FEFDF4",
"gX c #F4F5FB",
"hX c #FDF5FE",
"jX c #F5FDFE",
"kX c #FFFFFF",
/* pixels */
"kXkXkXkXkXkXkXkXkXkXkXkXkXkXkXkXkXkXkXkXkXkXkXkXkXkXkXkXkXkXkXkXkXkXkXkXkXkXkXkXkXgXkXkXgXkXkXkXkXkXkXkXkXkXkXkXkXkXkXkXkXkXkXkX",
"kXkXkXkXkXkXkXkXkXkXkXkXkXkXkXkXkXkXkXkXkXkXkXkXkXkXkXkXkXkXkXkXkXkXkXkXkXkXkXkXkXkXkXkXkXkXkXkXkXkXkXkXkXkXkXkXkXkXkXkXkXkXkXkX",
"kXkXkXkXkXkXkXkXkXkXkXkXkXkXkXkXkXkXkXkXkXkXkXkXkXkXkXkXkXkXkXkXkXkXkXkXkXkXkXkXtXkXkXkXkXkXkXjXkXkXkXkXkXkXkXkXkXkXkXkXkXkXkXkX",
"kXkXkXkXkXkXkXkXkXkXkXkXkXkXkXkXkXkXkXkXkXkXkXkXkXkXkXkXkXkXkXkXkXkXkXkXkXkXkXkXgXkXgXkXkXhXfXfXkXkXkXkXkXkXkXkXkXkXkXkXkXkXkXkX",
"kXkXkXkXkXkXkXkXkXkXkXkXkXkXkXkXkXkXkXkXkXkXkXkXkXkXkXkXkXkXkXkXkXkXkXkXkXkXkXkXkXkXkXkXkXhXkXkXkXkXkXkXkXkXkXkXkXkXkXkXkXkXkXkX",
"kXkXkXkXkXkXkXkXkXkXkXkXkXkXkXkXkXkXkXkXkXkXkXkXkXkXkXkXkXkXkXkXkXkXkXkXkXkXkXkXfX=X7XkXkXkXkXkXkXkXkXkXkXkXkXkXkXkXkXkXkXkXkXkX",
"kXkXkXkXkXkXkXkXkXkXkXkXkXkXkXkXkXkXkXkXkXkXkXkXkXkXkXkXkXkXkXkXkXkXkXkXkXkXkXkX6XA.=XfXdXkXgXkXkXkXkXkXkXkXkXkXkXkXkXkXkXkXkXkX",
"kXkXkXkXkXkXkXkXkXkXkXkXkXkXkXkXkXkXkXkXkXkXkXkXkXkXkXkXkXkXkXkXkXkXkXkXkXkXkXkX1X7.W.6XqXkXeXkXkXkXkXkXkXkXkXkXkXkXkXkXkXkXkXkX",
"kXkXkXkXkXkXkXkXkXkXkXkXkXkXkXkXkXkXkXkXkXkXkXkXkXkXkXkXkXkXkXkXkXkXkXfXfXfXkXkX+Xt =XjXfXkXq.{.dXkXfX9X9XfXfXkXkXkXkXkXkXkXkXkX",
"kXkXkXkXkXkXkXkXkXkXkXkXkXkXkXkXkXkXkXkXkXkXkXkXkXkXkXkXkXkXkXkXkXkXhXkXfXhXfXkXXXt 3XkX6X9.,.fXkXhXsXkXkXkXhXeXkXkXkXkXkXkXkXkX",
"kXkXkXkXkXkXkXkXkXkXkXkXkXkXkXkXkXkXkXkXkXkXkXkXkXkXkXkXkXkXkXkXkXjXkXkXkXkXkXkXE.f fXjX_.y I.jXkXhXhXjXgXhXkXkXkXkXkXkXkXkXkXkX",
"kXkXkXkXkXkXkXkXkXkXkXkXkXkXkXkXkXkXkXkXkXkXkXkXkXkXkXkXkXkXkXkXkXkXkXkXkXkXkXkXM.9.jX5X4.w.6XgX9XfXkXkXkXkXkXgXkXkXkXkXkXkXkXkX",
"kXkXkXkXkXkXkXkXkXkXkXkXkXkXkXkXkXkXkXkXkXkXkXkXkXkXkXkXkXkXkXkXkXkXkXkXkXkXkXjX>.S.iXP.2.|.kXjX6X,X<X7XaX7XfXkXkXkXkXkXkXkXkXkX",
"kXkXkXkXkXkXkXkXkXkXkXkXkXkXkXkXkXkXkXkXkXkXkXkXkXkXkXkXkXkXkXkXkXkXkXkXfXkXkXkXp }.oXy P.kXjX6X[.9.  Q.fXfXfX7XkXkXkXkXkXkXkXkX",
"kXkXkXkXkXkXkXkXkXkXkXkXkXkXkXkXkXkXkXkXkXkXkXkXkXkXkXkXkXkXkXkXkXkXhXhX8XqX8X6Xd +Xm.2.aXfXXXK.  7.{.kXkXeXeXkXkXkXkXkXkXkXkXkX",
"kXkXkXkXkXkXkXkXkXkXkXkXkXkXkXkXkXkXkXkXkXkXkXkXkXkXkXkXkXkXkXkXhXkXfX8X*X X@X<X8.L.p &XrXP.3.y Q.<XfXkXhXkXkXkXkXkXkXkXkXkXkXkX",
"kXkXkXkXkXkXkXkXkXkXkXkXkXkXkXkXkXkXkXkXkXkXkXkXuX8XhXiX,XfXkXyX>X`.j.^ > < ( { s 5.M.N.u 3.Q.hXkXkXkXkXkXkXkXkXkXkXkXkXkXkXkXkX",
"kXkXkXkXkXkXkXkXkXkXkXkXkXkXkXkXkXkXkXkXkXkXkXkX6XuXqX>XjXaXsX0XD.z.O.[ ` ' E Q g t.0.L.L.:X6XtXkXkXkXkXkXkXkXkXkXkXkXkXkXkXkXkX",
"kXkXkXkXkXkXkXkXkXkXkXkXkXkXkXkXkXkXkXkXkXkXkXkXhXgX3XfXtXkXhXn.c.p.@.F ) ` _ Q [ ~ u..XkXjXjX0XkXkXkXkXkXkXkXkXkXkXkXkXkXkXkXkX",
"kXkXkXkXkXkXkXkXkXkXkXkXkXkXkXkXkXkXkXkXkXkXkXkXhX&XiXiX2XfXw.a.n.k.[ V 2 ( _ _ ' ) *./.hXgXpX9XkXkXkXkXkXkXkXkXkXkXkXkXkXkXkXkX",
"kXkXkXkXkXkXkXkXkXkXkXkXkXkXkXkXkXkXkXkXkXkXkXkXkX9XtXhXiXT.z ^.*.%.B J ` ' E S e I D g.-XkXjX7XkXkXkXkXkXkXkXkXkXkXkXkXkXkXkXkX",
"kXkXkXkXkXkXkXkXkXkXkXkXkXkXkXkXkXkXkXkXkXkXkXkXfXtX4XkXqXg Z.U./ 1 , V _ ' ( ( $.C # N '.jXkXkXkXkXkXkXkXkXkXkXkXkXkXkXkXkXkXkX",
"kXkXkXkXkXkXkXkXkXkXkXkXkXkXkXkXkXkXkXkXkXkXkXkXiX2X0XkXz.f.$X* Q S B B E E ( U $.2 : ..'.<XgXkXkXkXkXkXkXkXkXkXkXkXkXkXkXkXkXkX",
"kXkXkXkXkXkXkXkXkXkXkXkXkXkXkXkXkXkXkXkXkXkXkXkXfXuXhXj.y.2Xr.v / S F ] ^ E 2 G B ' e q (.0XjXtXkXkXkXkXkXkXkXkXkXkXkXkXkXkXkXkX",
"kXkXkXkXkXkXkXkXkXkXkXkXkXkXkXkXjXkXkXfXsXfXfXfXkX6XaX% `.G.; D Q E Q Q F S S S l w ^ b .XkX5XkXkXkXkXkXkXkXkXkXkXkXkXkXkXkXkXkX",
"kXkXkXkXkXkXkXkXkXkXkXkXkXkXkXkXkXkXkXkXkXkXkXkXsXjXd.U.H.*.- G Q F S F Q F S S 1 8 = h.>XjXdXkXkXkXkXkXkXkXkXkXkXkXkXkXkXkXkXkX",
"kXkXkXkXkXkXkXkXkXkXkXkXkXkXkXkXkXkXhXkXkXkXkXkXhXXXc >X=.C  .G Q S A A Q Q S B L B . /.6XjXkXfXkXkXkXkXkXkXkXkXkXkXkXkXkXkXkXkX",
"kXkXkXkXkXkXkXkXkXkXkXkXkXkXkXkXfXfXkXjXkXjXjXjXsXr.B.J.7 m 2 G F S S E Q S A 1 L C e.2X0XjXkX0XkXkXkXkXkXkXkXkXkXkXkXkXkXkXkXkX",
"kXkXkXkXkXkXkXkXkXkXkXkXkXkXkXkXkXfXjXkXjXjXkXkX).S ).* V @.& G S F Q E A 1 1 8 : n ~.tXfXjXhX0XkXkXkXkXkXkXkXkXkXkXkXkXkXkXkXkX",
"kXkXkXkXkXkXkXkXkXkXkXkXkXkXkXkXfXkXkXjXkXkXfXsXf.:.v.% x 6 O.4 B S Q E 1 & 1 8 - u.4XgXjXkXkXfXkXkXkXkXkXkXkXkXkXkXkXkXkXkXkXkX",
"kXkXkXkXkXkXkXkXkXkXkXkXkXkXkXkXfXkXkXgXkXfX4X).: j.< G x 4 %.1 A F Q S 1 & & 8 r.).fXjXkXkX9XjXkXkXkXkXkXkXkXkXkXkXkXkXkXkXkXkX",
"kXkXkXkXkXkXkXkXkXkXkXkXkXkXkXkXkXkXkXgXkXfX#XF.<  .: &.3 c H o.S S S 1 8 8 & & U.fXgXjXhXfX,XjXkXkXkXkXkXkXkXkXkXkXkXkXkXkXkXkX",
"kXkXkXkXkXkXkXkXkXkXkXkXkXkXkXkXgX0XhXfX6XkX.Xc B B B A A S S A L l z C > O o.b.kXkXkXkXkXkXkXkXkXkXkXkXkXkXkXkXkXkXkXkXkXkXkXkX",
"kXkXkXkXkXkXkXkXkXkXkXkXkXkXkXkXjXfXfXjXjXsXc.k , B B B S S A S B F & : G * u.;XkXkXkXkXkXkXkXkXkXkXkXkXkXkXkXkXkXkXkXkXkXkXkXkX",
"kXkXkXkXkXkXkXkXkXkXkXkXkXkXkXkXkXhXfXjXhX$X .S B B B B S S A S Y $ 0 0 @ ;.].kXkXkXkXkXkXkXkXkXkXkXkXkXkXkXkXkXkXkXkXkXkXkXkXkX",
"kXkXkXkXkXkXkXkXkXkXkXkXkXkXkXkXhXkXdXjXhXC.h 6 B , B B A S A A v O 7 8 s !.fXhXkXkXkXkXkXkXkXkXkXkXkXkXkXkXkXkXkXkXkXkXkXkXkXkX",
"kXkXkXkXkXkXkXkXkXkXkXkXkXkXkXkXfXkXdXdXsXO.Z 6 , B B B B A A A = ( : - ^.kXyXfXkXkXkXkXkXkXkXkXkXkXkXkXkXkXkXkXkXkXkXkXkXkXkXkX",
"kXkXkXkXkXkXkXkXkXkXkXkXkXkXkXkXfXkXjX4X/.x T 4 B B B B A A , A = - b b.fXkXwXdXkXkXkXkXkXkXkXkXkXkXkXkXkXkXkXkXkXkXkXkXkXkXkXkX",
"kXkXkXkXkXkXkXkXkXkXkXkXkXkXkXkXfXkXkX-Xf.B ( V B B B B A , 1 : , | D.fXkXsXkXjXkXkXkXkXkXkXkXkXkXkXkXkXkXkXkXkXkXkXkXkXkXkXkXkX",
"kXkXkXkXkXkXkXkXkXkXkXkXkXkXkXkXfXgXhX$Xh I 9 C V S S B B B % % $ x.hXjX9X&XfXkXkXkXkXkXkXkXkXkXkXkXkXkXkXkXkXkXkXkXkXkXkXkXkXkX",
"kXkXkXkXkXkXkXkXkXkXkXkXkXkXkXkXhXdXfXv.Z [ 9 H ! < 3 T n b $.+ I.@XfXkXhXkXjXaXkXkXkXkXkXkXkXkXkXkXkXkXkXkXkXkXkXkXkXkXkXkXkXkX",
"kXkXkXkXkXkXkXkXkXkXkXkXkXkXkXkXhXjX;Xi.G Q W H < V { % $ l X g.-XfXfXkXhXkXkXfXkXkXkXkXkXkXkXkXkXkXkXkXkXkXkXkXkXkXkXkXkXkXkXkX",
"kXkXkXkXkXkXkXkXkXkXkXkXkXkXkXkXjXkXY.^ H V C J 7 I * j , o u.4XfXfXkXhXkXkXkXfXkXkXkXkXkXkXkXkXkXkXkXkXkXkXkXkXkXkXkXkXkXkXkXkX",
"kXkXkXkXkXkXkXkXkXkXkXkXkXkXkXkXjXhXg.V P < R W 4 B @ k * t.<XjXkXsXgXkXkXkXkXfXkXkXkXkXkXkXkXkXkXkXkXkXkXkXkXkXkXkXkXkXkXkXkXkX",
"kXkXkXkXkXkXkXkXkXkXkXkXkXkXkXkXhX2X@.4 ) G R W [ % U @ s >XkXtXkXkXkXkXkXkXfXkXkXkXkXkXkXkXkXkXkXkXkXkXkXkXkXkXkXkXkXkXkXkXkXkX",
"kXkXkXkXkXkXkXkXkXkXkXkXkXkXkXkXdXU.I H U G J W n D % o.#XjXiXkXkXjXjXkXjXhXkXkXkXkXkXkXkXkXkXkXkXkXkXkXkXkXkXkXkXkXkXkXkXkXkXkX",
"kXkXkXkXkXkXkXkXkXkXkXkXkXkXkXkX6Xf.H U Z K H D % ~ q (.kXrXgXkXdXfXjXfXfXkXkXkXkXkXkXkXkXkXkXkXkXkXkXkXkXkXkXkXkXkXkXkXkXkXkXkX",
"kXkXkXkXkXkXkXkXkXkXkXkXkXkXkXkX>XD H &.C K ) V < b ].kXsXhXkXdXdXjXfXjXkXkXkXgXkXkXkXkXkXkXkXkXkXkXkXkXkXkXkXkXkXkXkXkXkXkXkXkX",
"kXkXkXkXkXkXkXkXfXkXkXkXjXfXfXfXC.*.5 H T D l < 1.!.0XkXkXkXkXfXkXkXkXkXkXkXkXkXkXkXkXkXkXkXkXkXkXkXkXkXkXkXkXkXkXkXkXkXkXkXkXkX",
"kXkXkXkXkXkXkXkXfXkXkXkXkXhXfXkX:.$._ ` P < j M ).<XfXkXjXjXkXsXkXkXkXkXkXkXkXkXkXkXkXkXkXkXkXkXkXkXkXkXkXkXkXkXkXkXkXkXkXkXkXkX",
"kXkXkXkXkXkXkXkXfXkXkXkXjXkXkX0X} n m %.5 ; ..T.0X0XfXdXgXjXkXkXkXkXkXkXkXkXkXkXkXkXkXkXkXkXkXkXkXkXkXkXkXkXkXkXkXkXkXkXkXkXkXkX",
"kXkXkXkXkXkXkXkXkXkXkXhXkXkXfX2X` ` G < :  .Y.kXkXhXaXdXfXkXkXhXkXkXkXkXkXkXkXkXkXkXkXkXkXkXkXkXkXkXkXkXkXkXkXkXkXkXkXkXkXkXkXkX",
"kXkXkXkXkXkXkXkXfXhXkXkXkXkX8X*X7 K K : ..~.fXkXkXjXjXkXfXkXhXkXkXkXkXkXkXkXkXkXkXkXkXkXkXkXkXkXkXkXkXkXkXkXkXkXkXkXkXkXkXkXkXkX",
"kXkXkXkXkXkXkXkXfXkXkXkXkXkX8X*X, > 7 i.(.jXjX6XjXkXkXkXjXfXkXkXkXkXkXkXkXkXkXkXkXkXkXkXkXkXkXkXkXkXkXkXkXkXkXkXkXkXkXkXkXkXkXkX",
"kXkXkXkXkXkXkXkXfXkXkXkXkXkXfX8X*. .l..XkXkXeXfXfXfXkXhXkXkXkXkXkXkXkXkXkXkXkXkXkXkXkXkXkXkXkXkXkXkXkXkXkXkXkXkXkXkXkXkXkXkXkXkX",
"kXkXkXkXkXkXkXkXfXkXjXkXkXkXfXsXY.#XkXiX0X9XkXkXfXkXhXkXhXkXhX9XkXkXkXkXkXkXkXkXkXkXkXkXkXkXkXkXkXkXkXkXkXkXkXkXkXkXkXkXkXkXkXkX",
"kXkXkXkXkXkXkXkXkXkXkXkXkXkXkXkXkXkXkXkXkXkXkXkXkXkXkXkXkXkXkXkXkXkXkXkXkXkXkXkXkXkXkXkXkXkXkXkXkXkXkXkXkXkXkXkXkXkXkXkXkXkXkXkX",
"kXkXkXkXkXkXkXkXkXkXkXkXkXkXkXkXkXkXkXkXkXkXkXkXkXkXkXkXkXkXkXkXkXkXkXkXkXkXkXkXkXkXkXkXkXkXkXkXkXkXkXkXkXkXkXkXkXkXkXkXkXkXkXkX",
"kXkXkXkXkXkXkXkXkXkXkXkXkXkXkXkXkXkXkXkXkXkXkXkXkXkXkXkXkXkXkXkXkXkXkXkXkXkXkXkXkXkXkXkXkXkXkXkXkXkXkXkXkXkXkXkXkXkXkXkXkXkXkXkX",
"kXkXkXkXkXkXkXkXkXkXkXkXkXkXkXkXkXkXkXkXkXkXkXkXkXkXkXkXkXkXkXkXkXkXkXkXkXkXkXkXkXkXkXkXkXkXkXkXkXkXkXkXkXkXkXkXkXkXkXkXkXkXkXkX",
"kXkXkXkXkXkXkXkXkXkXkXkXkXkXkXkXkXkXkXkXkXkXkXkXkXkXkXkXkXkXkXkXkXkXkXkXkXkXkXkXkXkXkXkXkXkXkXkXkXkXkXkXkXkXkXkXkXkXkXkXkXkXkXkX",
"kXkXkXkXkXkXkXkXkXkXkXkXkXkXkXkXkXkXkXkXkXkXkXkXkXkXkXkXkXkXkXkXkXkXkXkXkXkXkXkXkXkXkXkXkXkXkXkXkXkXkXkXkXkXkXkXkXkXkXkXkXkXkXkX",
"kXkXkXkXkXkXkXkXkXkXkXkXkXkXkXkXkXkXkXkXkXkXkXkXkXkXkXkXkXkXkXkXkXkXkXkXkXkXkXkXkXkXkXkXkXkXkXkXkXkXkXkXkXkXkXkXkXkXkXkXkXkXkXkX",
"kXkXkXkXkXkXkXkXkXkXkXkXkXkXkXkXkXkXkXkXkXkXkXkXkXkXkXkXkXkXkXkXkXkXkXkXkXkXkXkXkXkXkXkXkXkXkXkXkXkXkXkXkXkXkXkXkXkXkXkXkXkXkXkX"
};
