/* XPM */
static char *_e93204e068d4183c47a284ded36efb1AKjR9isZOGOv0z44[] = {
/* columns rows colors chars-per-pixel */
"64 64 202 2 ",
"   c #23221F",
".  c #2A2825",
"X  c #372B28",
"o  c #37322C",
"O  c #373432",
"+  c #3E3A34",
"@  c #423E35",
"#  c #47433D",
"$  c #4B453C",
"%  c #4D4943",
"&  c #524D43",
"*  c #565146",
"=  c #5B564B",
"-  c #5E584D",
";  c #5E5850",
":  c #615B4F",
">  c #635E51",
",  c #666154",
"<  c #696356",
"1  c #6C6659",
"2  c #6E685A",
"3  c #776955",
"4  c #736C5D",
"5  c #6E6A65",
"6  c #7B7464",
"7  c #7F7868",
"8  c #797672",
"9  c #B93C47",
"0  c #BC3E49",
"q  c #C03F4A",
"w  c #8E5E53",
"e  c #AE4E52",
"r  c #B44D52",
"t  c #9D665B",
"y  c #8B7657",
"u  c #967E5A",
"i  c #897A64",
"p  c #817A6A",
"a  c #857F78",
"s  c #B16462",
"d  c #B26965",
"f  c #B6756E",
"g  c #B47971",
"h  c #C8424E",
"j  c #CF4D57",
"k  c #D14753",
"l  c #D14A54",
"z  c #D14F58",
"x  c #CE545C",
"c  c #CC585E",
"v  c #D45355",
"b  c #D65B54",
"n  c #D3535A",
"m  c #D65D5A",
"M  c #D96354",
"N  c #DA6A54",
"B  c #D7635C",
"V  c #D8635A",
"C  c #D96A5D",
"Z  c #DD7454",
"A  c #DF7C54",
"S  c #DC745E",
"D  c #E07D54",
"F  c #CC5D62",
"G  c #D65C64",
"H  c #CD6265",
"J  c #C86B6B",
"K  c #D76067",
"L  c #D96D63",
"P  c #DA7766",
"I  c #DD7A62",
"U  c #DB6F75",
"Y  c #CA7371",
"T  c #C37C76",
"R  c #C97B75",
"E  c #C87E78",
"W  c #DC7B79",
"Q  c #9B825C",
"!  c #88806F",
"~  c #988363",
"^  c #8B8372",
"/  c #928A77",
"(  c #958C7A",
")  c #988F7C",
"_  c #9B927E",
"`  c #A78C62",
"'  c #BB9B6A",
"]  c #BC877D",
"[  c #E18455",
"{  c #E38B55",
"}  c #E69455",
"|  c #E79A55",
" . c #E89E55",
".. c #E69A5A",
"X. c #E9A356",
"o. c #EBAA56",
"O. c #E8A75C",
"+. c #EEB456",
"@. c #DF8262",
"#. c #DE836A",
"$. c #DF886C",
"%. c #DE8E6C",
"&. c #C7847C",
"*. c #CB8779",
"=. c #C6887F",
"-. c #E18B64",
";. c #E39366",
":. c #E59C69",
">. c #E28475",
",. c #E5897A",
"<. c #E29671",
"1. c #E49F73",
"2. c #CFA36C",
"3. c #CAA773",
"4. c #DCB67B",
"5. c #E7A769",
"6. c #E9AB6C",
"7. c #E3B266",
"8. c #EBB36E",
"9. c #E4A477",
"0. c #E6AC7A",
"q. c #EDBB71",
"w. c #E7B17D",
"e. c #E2BA7E",
"r. c #EABA7D",
"t. c #EFC573",
"y. c #F1CE75",
"u. c #9D9482",
"i. c #96938E",
"p. c #9E9688",
"a. c #BB8E82",
"s. c #A49984",
"d. c #A49A85",
"f. c #A59C89",
"g. c #B99485",
"h. c #B69E8C",
"j. c #BA9C8B",
"k. c #ACA28C",
"l. c #B7A28E",
"z. c #B2A692",
"x. c #B5AA94",
"c. c #BAAD96",
"v. c #BAAF99",
"b. c #BBB098",
"n. c #BDB29A",
"m. c #BFB49C",
"M. c #BFB59D",
"N. c #BFB69E",
"B. c #B6AFA4",
"V. c #BCB4A6",
"C. c #C58D82",
"Z. c #C59386",
"A. c #C49688",
"S. c #C39B8B",
"D. c #E08684",
"F. c #E18988",
"G. c #E4948B",
"H. c #E49594",
"J. c #C4A48C",
"K. c #CBB48A",
"L. c #DAB28F",
"P. c #C1A491",
"I. c #C1AB96",
"U. c #C0AF98",
"Y. c #C8B797",
"T. c #C0B29A",
"R. c #C0B59D",
"E. c #C2B69E",
"W. c #E5B883",
"Q. c #EABC81",
"!. c #E8A297",
"~. c #EAB493",
"^. c #C8BCA9",
"/. c #ECB5AB",
"(. c #EDBAAA",
"). c #EBC283",
"_. c #EBC487",
"`. c #EDC58A",
"'. c #EECA94",
"]. c #F0CD94",
"[. c #F2CF9B",
"{. c #F0D19E",
"}. c #D6C9B7",
"|. c #F0CDAC",
" X c #F1D3A4",
".X c #F2D6AB",
"XX c #EDC5B3",
"oX c #F1C6B7",
"OX c #F4DCB5",
"+X c #F5DEBA",
"@X c #F5E1BE",
"#X c #E8DAC7",
"$X c #F3D3C2",
"%X c #F6DBC8",
"&X c #EDE0CD",
"*X c #F6E4CA",
"=X c #F5E6D5",
"-X c #F9EAD5",
";X c #FBEED8",
":X c #FCF1DD",
">X c #FCF4E6",
",X c #FDF8ED",
/* pixels */
"m.m.m.m.m.m.m.m.m.m.m.m.m.m.m.m.m.m.m.m.m.m.m.m.m.m.m.m.m.m.m.m.m.m.m.m.m.m.m.m.m.m.m.m.m.m.m.m.m.m.m.m.m.m.m.m.m.m.m.m.m.m.m.m.",
"m.m.m.m.m.m.m.m.m.m.m.m.m.m.m.m.m.m.m.m.m.m.m.m.m.m.m.m.m.m.m.m.m.m.m.m.m.m.m.m.m.m.m.m.m.m.m.m.m.m.m.m.m.m.m.m.m.m.m.m.m.m.m.m.",
"m.m.m.m.m.m.m.m.m.m.m.m.m.m.R.m.m.m.m.m.m.m.m.m.m.m.m.m.m.m.m.m.m.m.m.m.m.m.m.m.m.m.m.m.m.m.m.m.m.m.m.m.m.m.m.m.m.m.m.m.m.m.m.m.",
"m.m.m.m.m.m.m.R.m.m.m.T.R.x.z.R.m.m.m.b.R.R.m.m.b.m.m.m.m.m.N.c.k.b.m.m.m.m.m.m.m.m.b.m.m.m.m.m.b.m.m.m.m.m.m.m.m.m.m.m.m.m.m.R.",
"m.m.m.m.m.m.m.m.m.m.m.b._ / & k.m.R.m.4 ( R.R.R.6 ! m.m.m.R.s.k.* _ E.E.b.x.^.b.T.R./ 6 b.R.R.z.< _ m.m.m.m.m.R.m.R.m.m.m.m.m.m.",
"m.m.m.m.m.m.m.m.m.m.m.^.7 $ $ u.m._ / ^ : x.c.E.^ = m.m.c.u.4 * > , b._ - * ) N.b.6 d.* s.b.k.4 4 - m.m.m.m.m.m.m.m.R.m.m.m.m.m.",
"m.R.m.m.m.m.m.m.m.m.m.m.k.= * m._ * - 4 , _ < R.) - m.R.b.= * * , * k., ! 7 > E.z.+ _ > ( < $ & > = m.m.m.m.m.m.m.m.m.m.m.m.m.m.",
"m.m.m.m.m.m.m.m.m.m.m.c./ , $ p _ $ * 6 , k.@ 6 , . ! R.R.! $ 6 p d.E.p # # / b., @ 4 - d.^ & < . * m.m.m.m.m.m.m.m.m.m.m.m.m.m.",
"m.m.m.m.E.m.m.m.m.m.n.c.! - $ p c.f.f.s.: b.p p 6 & k.m.R.T./ & < b.b.k.^ ^ k.k._ x.( = ( < _ 4 : - m.m.m.m.m.m.m.m.m.m.m.m.m.m.",
"m.m.m.m.m.m.m.m.m.m.m.m.x.( * _ R.m.R.f.p R.R.R./ 4 R.m.R.R.u.@ 4 _ ( , 2 2 = / R.R.R., f.b.R.^ 6 1 R.m.T.m.m.m.m.m.m.m.m.m.m.m.",
"m.m.m.m.m.m.m.m.m.m.m.m.m.N.p k.R.m.R.v.b.m.m.R.u.u.R.R.m.m.k.1 < ^ n.n.R.R.b.v.m.m.m.s.b.m.m.v.k._ R.m.m.m.m.m.m.m.m.m.m.m.m.m.",
"m.m.m.m.m.m.m.m.m.m.m.m.m.m.b.m.R.m.m.m.m.m.m.m.m.R.m.m.m.m.R.R.E.E.n.n.m.m.m.R.m.m.m.R.m.m.R.m.R.R.m.m.m.m.m.m.m.m.m.m.m.m.m.m.",
"m.m.m.m.m.m.m.m.m.m.m.m.m.m.m.m.m.m.m.m.m.R.U.I.m.R.T.R.R.T.c.T.E.E.Y.T.m.c.T.T.m.m.m.m.m.m.m.R.R.m.m.m.m.m.m.R.m.m.m.m.m.m.R.m.",
"m.m.m.m.m.m.m.m.m.m.m.m.m.m.m.m.m.m.m.m.m.P.d r s l.m.R.l.s e s l.N.U.J.d e s j.m.m.m.R.m.m.m.m.R.R.m.m.m.m.m.m.m.m.m.m.m.m.m.m.",
"m.m.m.m.m.m.m.m.m.m.m.m.m.m.m.m.R.m.R.v.g.s q q r r g g e q h 0 r g g r q h q r g g.R.m.m.m.m.m.m.m.R.m.m.m.m.m.m.m.m.m.m.m.m.m.",
"m.m.m.m.m.m.m.m.m.m.m.m.m.m.m.m.R.T.R.A.r h k k k h 9 9 h k k k h 9 r r k k k h 9 f m.m.m.m.m.m.m.m.m.m.m.m.m.T.m.m.m.m.m.m.m.m.",
"m.m.m.m.m.m.m.m.m.m.m.m.m.m.m.m.R.m.m.P.c k k k k k k k k k k k k k k k k k l k l =.m.m.m.m.m.m.m.m.m.m.m.m.m.m.m.m.m.m.m.m.m.m.",
"m.m.m.m.m.E.m.m.m.m.m.R.m.m.m.m.m.m.m.m.R l k k k k k k k k k k k k k k k k k h c P.m.m.R.m.m.m.m.m.m.m.m.m.m.m.m.m.R.m.m.m.m.m.",
"m.m.m.m.m.m.m.m.m.m.m.m.m.m.m.m.m.m.m.m.J.[ [ [ Z b l k k k k k k k l M Z [ { A *.R.m.m.n.R.m.m.m.m.m.m.m.m.m.m.m.m.m.m.m.m.m.m.",
"m.m.m.m.m.m.m.m.m.m.m.m.m.m.m.m.m.m.m.T.7.+.;.[ }  .| Z v k k k b [  . .} [ { o.4.R.m.m.m.m.m.m.m.m.m.R.m.m.m.m.m.m.m.m.m.m.m.m.",
"m.R.m.m.m.m.m.m.m.R.m.m.m.m.m.m.m.m.m.m.K.7.7.J v v Z | | M v Z  .{ N v l N } O.K.N.n.m.m.R.n.m.m.m.m.m.m.m.R.m.m.m.m.m.m.m.m.T.",
"m.n.N.m.m.m.m.m.m.m.m.m.m.m.m.m.m.m.m.m.m.K.7.o.| Z M b { o.| o.A b M A | O.4.I.R.m.m.m.m.m.R.m.m.m.m.m.m.m.m.m.m.m.m.m.m.m.m.m.",
"m.m.m.m.m.m.m.m.m.m.m.m.m.m.m.m.m.m.m.m.m.Y._.:.A } | X.o.+.+.o. .X. .{ Z *.I.m.m.m.m.m.m.m.m.m.m.m.m.m.m.m.m.m.m.m.m.m.m.m.m.m.",
"m.m.m.m.m.m.m.m.m.m.m.m.m.m.m.m.m.m.m.I.C.W.{._.L v [ X.| o.o.X.} N v k l P r.L.n.m.m.m.m.m.m.m.m.R.m.m.m.m.m.m.m.R.m.m.m.m.m.m.",
"m.m.m.m.m.n.E.m.m.m.m.m.m.m.m.m.m.m.A.F L '.:X+X0...{ M l b b b A } { b L r.{.Q.R J.R.R.m.m.n.R.m.m.m.R.m.m.m.m.m.m.m.m.m.m.m.m.",
"m.m.m.m.m.m.m.m.m.m.n.m.m.m.m.m.T.&.z k I .X,X>X{.%.k k k k k k k v A ..r..X>X.XC x Z.m.m.n.R.R.m.m.m.m.m.m.m.m.m.m.m.m.m.m.m.R.",
"m.m.m.m.m.m.m.m.m.m.m.m.m.R.m.P.J k k k <.OX>X,X*Xw.n k k k k k k k l 1.[.:X,XOXP k x =.T.n.m.n.m.m.m.m.m.m.m.m.m.m.m.m.m.m.m.m.",
"m.m.m.m.m.m.m.E.m.m.m.m.m.m.J.H k k k V 0.+X,X>X$X#.l k k k k k k k l S (.,X,X+X#.k k k R R.R.n.m.m.m.m.m.m.m.m.m.m.m.m.m.m.m.m.",
"m.m.m.m.m.R.m.n.m.m.m.m.m.S.c k k k N ..r.*X>X/.G k n L $.<.<.<.P m k k n H.=X+X6.b k k k E m.m.m.R.m.m.m.m.m.m.m.m.m.m.m.m.m.m.",
"m.m.m.m.R.n.m.m.m.E.m.m.S.c k k k N | [ r.|.F.l v I 0.Q.).).).).).Q.<.B k k U ~.5.| b k k k E m.m.m.m.m.m.m.T.m.m.m.m.R.m.m.m.m.",
"m.m.m.m.m.m.m.m.m.m.m.J.F k k k b | N K 0.L k m 9.).).).).).).).).)._.r.P z k n C Z } b k k j &.m.m.m.m.m.m.m.m.m.m.m.m.m.m.m.m.",
"E.n.m.m.m.m.m.m.m.m.I.H l k k v } Z k m V k m 0._.).).).).).).).)._.)._.Q.I l k k k A } j k k v A.m.m.m.m.m.m.m.m.m.m.m.m.m.m.m.",
"m.m.m.m.m.m.m.m.T.T.Y k k k Z | { l k k k v 9.).).).).).)._.).).).).).).).r.L k k k l { [ b k k F P.m.m.m.m.m.m.m.m.m.m.m.m.m.m.",
"m.m.m.m.m.m.m.m.T.C.l k k M o.+.[ k k k k $.).)._._.`..X'.t.).).).'.`.).).).0.n k k k M o.o.N k k Y m.m.m.m.m.m.m.m.m.m.m.R.m.m.",
"m.m.m.m.R.m.m.m.P.F k k k M X.X.b k k k n w._.).2.` 3. X X).).).{.@X`._.).).).I k k k v X.+.{ k k z A.m.m.m.m.m.m.m.m.m.m.m.m.m.",
"m.R.m.m.m.m.R.T.J k k k k k v m k k k k P )._.3.s.% # 2._.).).).`.W.' 3.).).).9.l k k k N [ b l k k H U.m.m.m.m.m.m.m.m.m.m.m.m.",
"m.m.m.m.m.m.m.S.z k k k k k k k k k k k <.).).~ B.8 i.i ).).).).W.i 5 + ` _.).r.m k k k k l k k k k z C.m.m.m.m.m.m.m.m.m.m.m.m.",
"m.m.m.m.m.m.m.J k k k k k k k l k k l l 9._.).Q % i.% Q ).).).).' 8 V.5 u.4._.Q.L k k k k k k k k k k H m.m.m.m.m.m.m.m.m.m.m.m.",
"m.m.m.m.m.m.S.n k k k k k k k k k k k v 0.).).4.u i y 4.).).).).3.X 8 ^ 3 e.).).P k k k k k k k k k k z S.m.m.m.m.m.m.m.m.m.m.m.",
"m.m.m.m.m.m.&.k k k k k k k k l k k k v 0._._.)._.4.Q.Q.`.[.{.`.).u 4 i ' ).).).L k k k k k k k k k k k R m.m.m.m.m.m.m.m.T.m.m.",
"m.R.m.m.m.v.H k k k k k k k k k k k k z (.].).).Q.).`.L.k.z.B.U.W._.4.4.).).).Q.L k k k k k k k k k k k F U.m.m.m.m.m.m.m.m.m.m.",
"m.m.T.m.m.P.z k l k k k k k k k k k k k /.*XOX X X.X*X^.o O + . k..X`.).).).'.|.K k k k k j k k k k k k z J.V.m.m.m.m.m.m.m.m.m.",
"m.m.m.m.R.Z.k k k k k k k k k k k k k k D.-X;X}.^.;X;X=Xa . . 5 #X-X*XOX.X+X=X(.j k k k k k k k k k k k k C.m.m.m.m.m.m.m.m.m.m.",
"m.m.m.m.T.&.k k k k k k l k k k k k k k G $X;X#X< V.;X-X*XV.x.#X;X;X#Xu.#X;X;XF.k k k k k k k k k k k k k &.m.m.m.m.R.m.m.m.m.m.",
"m.m.m.m.R.R k k k k k k k k l k k k k k k G.;X;X^.% f.^.XXXXoXoX&X}.; p.=X:XoXn k k k k k k k k k k l k k Y m.m.m.m.m.m.m.m.m.m.",
"m.m.m.m.R.Y k k k k k l k k k k l k k k k l /.;X;Xc.. X P >.,.t O + f.-X;X%XU k k k k j k k k k k k k k k Y m.m.m.m.m.m.m.R.m.m.",
"m.m.m.m.m.Y k k k k l k k k k k k k k k k k G XX;X;XB.w >.>.>.t # V.;X-X*XD.k k k k k k k k k k k k k k k Y m.m.T.m.m.m.m.m.m.m.",
"m.m.m.m.m.R k k k k k k k k k k k k k k k l k G /.-X:XXX,.>.>.!.#X:X;X$XD.k k k k k k k k k k k l k k k k R m.m.m.m.m.m.m.m.m.m.",
"m.m.m.m.m.C.k k k k k k k k k k k k k k k k k k l D.oX%X!.,.G.+X;X$X!.G k k k k k k k k k k k k k k k k k =.R.m.m.m.m.m.m.m.m.m.",
"m.m.m.m.V.S.z k k k k k k k k k l k k k l k k k l k z U F.F.G.H.W G z k k l k k k k l k k k k l k k k k z S.m.m.m.m.m.m.m.m.m.m.",
"m.m.m.m.m.I.H k k k k k k k k k k k k k k k k k k v -.v 0 k l v B L v k k k k k k k k k k k k k l k k k H U.m.m.m.m.m.m.m.m.m.m.",
"m.m.m.m.m.m.C.l k k k k k k k k k k k l k k k k k V t.-.k -.q.q.8.:.v k k k k k k k k k k l k k k k k k =.V.m.m.m.m.m.m.m.m.m.m.",
"m.m.m.m.m.m.I.H k k k k k k k k k k k k k k k k k k V S l V -.;.-.S v k k k k k k k k k k k k k k k k F I.m.m.m.m.m.m.m.m.m.m.m.",
"m.m.m.m.m.m.m.Z.j k k k k l k k k k k k k k k v V -.5.t.-.;.:.C -.y.I k k k l k l k k k k k k k k k z C.m.m.m.m.m.m.m.m.R.m.m.m.",
"R.m.m.m.m.R.m.m.&.z k k k l k k k k k k k k k V 6.:.t.8.l S 6.-.5.5.l k k k k k k k k k k k k k k k C.m.m.m.m.m.m.m.m.R.m.m.m.m.",
"m.m.m.m.m.m.m.m.m.E z k k k k k k k k k k k k j v I y.8.V v -.;.-.-.I V k l k k k k k l k k k k l E m.m.m.m.m.m.m.m.m.m.m.m.m.m.",
"m.m.m.m.m.m.m.m.m.m.C.x k k k k k k k k k k k k I 5.8.S ;.8.;.8.:.S 8.q.v k k k k k k k k k k z *.v.m.m.m.m.m.m.m.m.m.m.m.m.m.m.",
"m.m.m.m.m.m.m.m.T.v.m.A.F k k k k k k k k k k I -.b 5.m %.8.I q.8.I 8.;.k k k k k k k k k k H A.R.m.m.m.m.m.m.m.m.m.m.m.m.m.m.m.",
"m.m.m.m.m.m.m.m.T.m.m.m.I.&.n k k k k k k k j v l l 5.m b 6.I q.:.S q.V k k k k k k k l x &.I.R.n.m.m.m.m.m.m.m.m.m.m.m.m.m.m.m.",
"m.T.m.m.m.m.m.m.R.m.m.m.m.T.P.T c k k k k k k k l n 5.b l @.:.;.;.6.:.k k k k k k l x T l.m.R.T.R.m.m.R.m.m.m.m.m.R.m.m.m.m.m.m.",
"m.m.m.m.m.m.m.m.m.m.m.c.x.x.x.z.h.] f x j k k k k l v k k k j k k b v k k k l x J ] k.x.x.x.z.m.m.m.m.m.m.m.m.m.R.R.m.m.m.m.R.m.",
"m.m.m.m.m.m.m.m.m.m.v.x.z.z.z.z.z.x.z.h.] f J F c l l z k k k j k j x F J T a.h.z.z.z.z.z.z.x.m.m.m.m.m.m.m.m.m.R.b.m.m.m.m.m.m.",
"m.m.m.m.m.m.m.m.m.m.m.m.m.m.v.c.c.c.x.x.c.x.x.z.h.j.g.a.a.a.a.g.g.h.h.z.x.x.x.c.c.c.c.v.m.m.m.m.m.m.m.m.m.R.m.m.R.m.m.m.m.m.m.m.",
"m.m.m.m.m.m.m.m.m.m.m.m.m.m.m.T.m.m.m.N.n.m.m.v.m.m.m.m.m.b.m.m.b.m.m.b.m.m.m.m.m.R.n.R.n.c.m.m.m.m.m.m.m.m.m.m.m.m.m.m.m.m.m.m."
};
