/* XPM */
static char *b4279c3955d944ccd3b3a5c863309f4ftQSpaT4jLYD1XdiX[] = {
/* columns rows colors chars-per-pixel */
"64 64 119 2 ",
"   c #3F3A36",
".  c #403B37",
"X  c #9B8B71",
"o  c #9F9079",
"O  c #A5977D",
"+  c #908B87",
"@  c #918C88",
"#  c #959490",
"$  c #9B9692",
"%  c #A39781",
"&  c #A59F91",
"*  c #ABA18F",
"=  c #B3A286",
"-  c #ACA595",
";  c #B7AB96",
":  c #BDAD93",
">  c #A5A4A0",
",  c #ADACA8",
"<  c #B3AFA4",
"1  c #B1ACA8",
"2  c #B7B1A5",
"3  c #BBB2A1",
"4  c #B3B1AD",
"5  c #BEB4AB",
"6  c #BCB7B3",
"7  c #BFBBB0",
"8  c #C1AEA8",
"9  c #C1B9A6",
"0  c #CBBCA5",
"q  c #CAB1AD",
"w  c #C7BEAD",
"e  c #CEAEB3",
"r  c #C7B4B5",
"t  c #C0BCB3",
"y  c #D7B3B7",
"u  c #D1B7BA",
"i  c #DBB6BA",
"p  c #D3BFBE",
"a  c #E6ADB6",
"s  c #E9BCBF",
"d  c #CBC0AE",
"f  c #CEC7B7",
"g  c #C6C2BB",
"h  c #CCC5BB",
"j  c #CEC8BA",
"k  c #D4CBBD",
"l  c #DEBEC3",
"z  c #E7BEC2",
"x  c #F0BBC3",
"c  c #C6C5C1",
"v  c #CCCAC5",
"b  c #CDCCC8",
"n  c #D1C5C5",
"m  c #D4CBC3",
"M  c #DDCAC6",
"N  c #DFC4CA",
"B  c #D2CFCB",
"V  c #D3D1C7",
"C  c #DCD3C5",
"Z  c #D4D2CD",
"A  c #DDD5CB",
"S  c #D6D5D2",
"D  c #DBD6D2",
"F  c #DCDAD5",
"G  c #DEDEDC",
"H  c #E4C3C4",
"J  c #E9C0C4",
"K  c #E7C7CC",
"L  c #EBC4C9",
"P  c #E3CCCD",
"I  c #EACACB",
"U  c #F4CACF",
"Y  c #E3D6CB",
"T  c #E5DBCB",
"R  c #E3CFD0",
"E  c #E8CFD5",
"W  c #F5CED1",
"Q  c #E7D3D5",
"!  c #EDD4D4",
"~  c #E3DCD4",
"^  c #E8DFD0",
"/  c #E7D7D8",
"(  c #E3DBD9",
")  c #E8DCDC",
"_  c #F8DBDF",
"`  c #DEE2DD",
"'  c #E5E1D5",
"]  c #EAE2D5",
"[  c #E3E2DD",
"{  c #E9E5DC",
"}  c #E7E9DE",
"|  c #EAE9DE",
" . c #F1DCE1",
".. c #DFE4E0",
"X. c #E4E5E2",
"o. c #EBE6E2",
"O. c #E7E8E3",
"+. c #EBEAE5",
"@. c #E9E7E8",
"#. c #E7E9E8",
"$. c #ECECE9",
"%. c #F2E4E3",
"&. c #FCE5E5",
"*. c #F2ECE5",
"=. c #F2EDEA",
"-. c #FCECEB",
";. c #ECF0E2",
":. c #EEF0EB",
">. c #F4F2E7",
",. c #F4F2ED",
"<. c #FAF4ED",
"1. c #FDF9EF",
"2. c #F5F5F3",
"3. c #FAF6F3",
"4. c #F6F9F3",
"5. c #FCFBF5",
"6. c #FAF6FB",
"7. c #F6FCFC",
"8. c #FFFFFE",
/* pixels */
"8.8.8.8.8.8.8.8.8.8.8.8.8.8.8.8.8.8.8.8.8.8.8.8.7.8.5.6.7.7.7.8.8.8.8.8.8.8.8.8.-.5.7.7.8.8.8.5.8.8.8.8.8.8.8.8.8.8.8.8.8.8.8.8.",
"8.8.8.8.8.8.8.8.8.8.8.8.8.8.8.8.8.8.8.8.8.8.8.8.8.8.8.8.8.7.8.8.6.8.8.8.8.8.5.+.~ 1.8.7.8.6.5.8.8.8.8.8.8.8.8.8.8.8.8.8.8.8.8.8.",
"8.8.8.8.8.8.8.8.8.8.8.8.8.8.8.8.8.8.8.8.8.8.8.8.7.%.3.6.8.7.8.8.6.8.8.6.8.8.-.v i -.8.8.8.6.6.8.8.8.8.8.8.8.8.8.8.8.8.8.8.8.8.8.",
"8.8.8.8.8.8.8.8.8.8.8.8.8.8.8.8.8.8.8.8.8.8.8.8.,.n E 8.8.6.8.8.8.8.8.6.8.6.Q r J -.8.8.8.8.5.8.8.8.8.8.8.8.8.8.8.8.8.8.8.8.8.8.",
"8.8.8.8.8.8.8.8.8.8.8.8.8.8.8.8.8.8.8.8.8.8.8.8.<.r u &.2.6.8.5.8.8.7.8.8.%.P y U -.8.6.8.8.5.8.8.8.8.8.8.8.8.8.8.8.8.8.8.8.8.8.",
"8.8.8.8.8.8.8.8.8.8.8.8.8.8.8.8.8.8.8.8.8.8.8.8.5.n e W -.8.8.7.8.7.5.5.5.%.L L W -.5.6.8.8.8.7.8.8.8.8.8.8.8.8.8.8.8.8.8.8.8.8.",
"8.8.8.8.8.8.8.8.8.8.8.8.8.8.8.8.8.8.8.8.8.8.8.8.5.Y y R =.6.7.5.8.5.5.7.3.%.U x ! <.7.7.8.8.8.5.8.8.8.8.8.8.8.8.8.8.8.8.8.8.8.8.",
"8.8.8.8.8.8.8.8.8.8.8.8.8.8.8.8.8.8.8.8.8.8.8.8.1.! a H &.6.4.8.8.8.8.4.>.&.U a ! 3.8.7.8.8.8.7.8.8.8.8.8.8.8.8.8.8.8.8.8.8.8.8.",
"8.8.8.8.8.8.8.8.8.8.8.8.8.8.8.8.8.8.8.8.8.8.8.8.6.-.N l  .3.4.5.8.8.3.2.3.&.I s @.6.8.8.8.8.8.8.8.8.8.8.8.8.8.8.8.8.8.8.8.8.8.8.",
"8.8.8.8.8.8.8.8.8.8.8.8.8.8.8.8.8.8.8.8.8.8.8.8.8.6.R N _ <.<.4.8.8.7.2.5.%.I z $.5.8.8.7.8.8.8.8.8.8.8.8.8.8.8.8.8.8.8.8.8.8.8.",
"8.8.8.8.8.8.8.8.8.8.8.8.8.8.8.8.8.8.8.8.8.8.8.8.8.5. .N ! -.1.5.5.8.5.4.5.%.P L 2.8.8.8.8.8.8.8.8.8.8.8.8.8.8.8.8.8.8.8.8.8.8.8.",
"8.8.8.8.8.8.8.8.8.8.8.8.8.8.8.8.8.8.8.8.8.8.8.8.5.8.&.P Q -.5.5.3.8.4.4.5.%.Q E 3.8.8.8.6.8.8.8.8.8.8.8.8.8.8.8.8.8.8.8.8.8.8.8.",
"8.8.8.8.8.8.8.8.8.8.8.8.8.8.8.8.8.8.8.8.8.8.8.8.6.8.3./ M *.5.4.,.3.,.,.5.*.) %.8.8.8.8.8.8.8.8.8.8.8.8.8.8.8.8.8.8.8.8.8.8.8.8.",
"8.8.8.8.8.8.8.8.8.8.8.8.8.8.8.8.8.8.8.8.8.8.8.8.8.8.8.*.~ o.3.=.=.>.=.<.3.@.o.2.8.8.8.8.8.8.8.8.8.8.8.8.8.8.8.8.8.8.8.8.8.8.8.8.",
"8.8.8.8.8.8.8.8.8.8.8.8.8.8.8.8.8.8.8.8.8.8.8.8.8.7.8.5.{ | 4.*.>.<.*.=.-.@.@.8.8.8.8.8.8.8.8.8.8.8.8.8.8.8.8.8.8.8.8.8.8.8.8.8.",
"8.8.8.8.8.8.8.8.8.8.8.8.8.8.8.8.8.8.8.8.8.8.8.8.7.4.8.8.$.*.5.<.<.<.<.=.=.O.#.8.8.6.8.8.8.8.8.8.8.8.8.8.8.8.8.8.8.8.8.8.8.8.8.8.",
"8.8.8.8.8.8.8.8.8.8.8.8.8.8.8.8.8.8.8.8.8.8.8.8.7.8.2.8.,.2.<.8.<.1.5.<.8.( ) 8.8.8.8.8.8.8.6.8.8.8.8.8.8.8.8.8.8.8.8.8.8.8.8.8.",
"8.8.8.8.8.8.8.8.8.8.8.8.8.8.8.8.8.8.8.8.8.8.8.8.7.8.8.7.2.S 5.5.<.>.5.5.( + +.8.8.8.8.8.8.8.8.8.8.8.8.8.8.8.8.8.8.8.8.8.8.8.8.8.",
"8.8.8.8.8.8.8.8.8.8.8.8.8.8.8.8.8.8.8.8.8.8.8.8.7.7.8.2.>., 8.<.1.>.5.5.4 . *.5.8.8.8.8.8.8.8.8.8.8.8.8.8.8.8.8.8.8.8.8.8.8.8.8.",
"8.8.8.8.8.8.8.8.8.8.8.8.8.8.8.8.8.8.8.8.8.8.8.8.8.4.8.2.` # 3.$.5.1.<.>.$ . o.8.7.6.8.8.8.8.8.8.8.8.8.8.8.8.8.8.8.8.8.8.8.8.8.8.",
"8.8.8.8.8.8.8.8.8.8.8.8.8.8.8.8.8.8.8.8.8.8.8.8.8.7.8.6.S - <.<.1.5.1.<.1 + F 5.8.8.8.8.8.8.8.8.8.8.8.8.8.8.8.8.8.8.8.8.8.8.8.8.",
"8.8.8.8.8.8.8.8.8.8.8.8.8.8.8.8.8.8.8.8.8.8.8.8.7.7.8.4.S b ,.8.>.5.5.5.( ) ( ,.5.8.6.8.8.8.8.8.8.8.8.8.8.8.8.8.8.8.8.8.8.8.8.8.",
"8.8.8.8.8.8.8.8.8.8.8.8.8.8.8.8.8.8.8.8.8.8.8.8.8.4.8.#.` #.,.8.>.1.5.5.,.5.=.+.7.8.8.8.8.8.8.8.8.8.8.8.8.8.8.8.8.8.8.8.8.8.8.8.",
"8.8.8.8.8.8.8.8.8.8.8.8.8.8.8.8.8.8.8.8.8.8.8.8.8.4.8.F @.4.+.<.1.*.5.5.<.*.8.[ 6.6.8.8.8.8.8.8.8.8.8.8.8.8.8.8.8.8.8.8.8.8.8.8.",
"8.8.8.8.8.8.8.8.8.8.8.8.8.8.8.8.8.8.8.6.8.8.8.7.7.7.,.O.;.,.>.O.&.&.<.5.5.4.,.%.$.8.8.6.8.8.6.8.8.8.8.8.8.8.8.8.8.8.8.8.8.8.8.8.",
"8.8.8.8.8.8.8.8.8.8.8.8.8.8.8.8.8.8.8.8.6.8.8.8.8.5.:.O.+.<.>.O.H T -.8.5.<.3.=.@.8.8.8.8.8.6.8.8.8.8.8.8.8.8.8.8.8.8.8.8.8.8.8.",
"8.8.8.8.8.8.8.8.8.8.8.8.8.8.8.8.8.8.8.8.8.8.8.6.2.:.#.O.#.4.<.*.q M <.5.3.$.-.*.@.7.8.7.8.8.8.8.8.8.8.8.8.8.8.8.8.8.8.8.8.8.8.8.",
"8.8.8.8.8.8.8.8.8.8.8.8.8.8.8.8.8.8.8.8.8.8.6.2.....[ X.+.>.<.*.8 M <.5.4.@.*.%.+.6.8.8.8.8.8.8.8.8.8.8.8.8.8.8.8.8.8.8.8.8.8.8.",
"8.8.8.8.8.8.8.8.8.8.8.8.8.8.8.8.8.8.7.8.8.8.$.G ..` ` O.+.;.+.+.8 h { 3.>.=.,.*.#.7.8.6.8.8.8.8.8.8.8.8.8.8.8.8.8.8.8.8.8.8.8.8.",
"8.8.8.8.8.8.8.8.8.8.8.8.8.8.8.8.8.6.6.8.8.2...S ....` #.+.O.' [ m V ' *.o.+.$.o.@.6.8.8.8.8.8.8.8.8.8.8.8.8.8.8.8.8.8.8.8.8.8.8.",
"8.8.8.8.8.8.8.8.8.8.8.8.8.8.8.8.8.6.7.8.6.@.G G #...#.:.$.} ' [ +.' | *.o.o.+.) @.8.8.6.8.8.7.8.8.8.8.8.8.8.8.8.8.8.8.8.8.8.8.8.",
"8.8.8.8.8.8.8.8.8.8.8.8.8.8.8.8.8.8.8.8.,...G #.......:.>.+.[ O.;.} +.=.%.=.5.2.$.8.8.8.8.8.6.8.8.8.8.8.8.8.8.8.8.8.8.8.8.8.8.8.",
"8.8.8.8.8.8.8.8.8.8.8.8.8.8.8.8.8.8.8.$.G G G X.O.#.:.,.,.>.>.4.,.4.5.3.3.4.,.2.2.2.6.8.8.8.8.8.8.8.8.8.8.8.8.8.8.8.8.8.8.8.8.8.",
"8.8.8.8.8.8.8.8.8.8.8.8.8.8.8.8.8.8.6.#.G G G X.X.O.#.,.4.4.4.,.5.5.5.5.5.8.3.6.2.2.7.8.8.8.8.8.8.8.8.8.8.8.8.8.8.8.8.8.8.8.8.8.",
"8.8.8.8.8.8.8.8.8.8.8.8.8.8.8.8.8.5.2.X.G G G G X.O.#.:.4.4.4.1.5.5.5.5.8.8.8.6.2.4.8.8.8.8.8.6.8.8.8.8.8.8.8.8.8.8.8.8.8.8.8.8.",
"8.8.8.8.8.8.8.8.8.8.8.8.8.8.8.8.8.6.@.X.G X.X.X.X.X.:.>.4.1.5.5.5.5.5.8.5.5.3.4.2.4.6.8.8.8.8.8.8.8.8.8.8.8.8.8.8.8.8.8.8.8.8.8.",
"8.8.8.8.8.8.8.8.8.8.8.8.8.8.8.8.8.3.#.X.X.X.X.X...X.$.2.1.5.5.5.5.5.5.5.5.6.3.4.:.6.7.8.8.8.8.8.8.8.8.8.8.8.8.8.8.8.8.8.8.8.8.8.",
"8.8.8.8.8.8.8.8.8.8.8.8.8.8.8.8.5.,.O.O.X.X.X.@.X.X.$.2.4.5.5.5.5.8.5.5.8.5.6.2.2.2.6.8.8.8.6.8.8.8.8.8.8.8.8.8.8.8.8.8.8.8.8.8.",
"8.8.8.8.8.8.8.8.8.8.8.8.8.8.8.8.3.$.O.#.@.[ [ O.O.$.$.2.5.5.5.5.5.5.5.8.5.5.3.3.2.2.8.8.8.8.8.8.8.8.8.8.8.8.8.8.8.8.8.8.8.8.8.8.",
"8.8.8.8.8.8.8.8.8.8.8.8.8.8.8.8.2.@.O.@.#.G G O.O.#.$.2.5.5.5.5.5.5.5.8.5.6.4.4.2.3.7.8.8.8.8.8.8.8.8.8.8.8.8.8.8.8.8.8.8.8.8.8.",
"8.8.8.8.8.8.8.8.8.8.8.8.8.8.8.8.@.#.#.;.O.X.X.O.X.#.$.2.6.7.6.5.8.8.5.5.3.2.,.4.2.6.8.8.8.8.8.8.8.8.8.8.8.8.8.8.8.8.8.8.8.8.8.8.",
"8.8.8.8.8.8.8.8.8.8.8.8.8.8.8.8.$.:.;.O.O.O.X.[ X.O.$.4.3.5.6.7.5.5.8.5.3.4.2.,.2.6.8.8.8.8.8.8.8.8.8.8.8.8.8.8.8.8.8.8.8.8.8.8.",
"8.8.8.8.8.8.8.8.8.8.8.8.8.8.8.8.+.+.+.+.O.O.[ [ X.X.@.2.2.6.7.7.5.4.3.3.3.,.,.=.,.6.8.8.8.8.8.8.8.8.8.8.8.8.8.8.8.8.8.8.8.8.8.8.",
"8.8.8.8.8.8.8.8.8.8.8.8.8.8.8.8.:.:.+.#.O.O.[ ` X.X.@.:.2.3.3.3.3.5.3.3.2.,.#.@.2.7.8.8.8.8.8.8.8.8.8.8.8.8.8.8.8.8.8.8.8.8.8.8.",
"8.8.8.8.8.8.8.8.8.8.8.8.8.8.8.8.4.:.+.+.+.O.} [ ( X.#.$.2.4.4.6.6.4.,.,.,.>.+.X.4.6.8.8.8.8.8.8.8.8.8.8.8.8.8.8.8.8.8.8.8.8.8.8.",
"8.8.8.8.8.8.8.8.8.8.8.8.8.8.8.8.4.,.+.O.#.+.O.X.G X.@.2.4.6.6.6.4.>.$.$.$.$.+.X.4.6.8.8.8.8.8.8.8.8.8.8.8.8.8.8.8.8.8.8.8.8.8.8.",
"8.8.8.8.8.8.8.8.8.8.8.8.8.8.8.8.5.:.O.[ O.O.O.} ` X.@.,.2.6.5.5.,.$.X.@.$.$.=.+.4.8.8.8.8.8.8.6.8.8.8.8.8.8.8.8.8.8.8.8.8.8.8.8.",
"8.8.8.8.8.8.8.8.8.8.8.8.8.8.8.8.7.2.O.` [ X.O.X.` X.@.:.4.5.5.7.$.O.' X.$.,.,.,.2.6.8.8.8.8.8.8.8.8.8.8.8.8.8.8.8.8.8.8.8.8.8.8.",
"8.8.8.8.8.8.8.8.8.8.8.8.8.8.8.8.:.;.| ] ' ' ` ` F [ } $.8.8.,.,.+.S S *.*.*.5.5.3.8.8.8.5.8.8.7.8.8.8.8.8.8.8.8.8.8.8.8.8.8.8.8.",
"8.8.8.8.8.8.8.8.8.8.8.6.8.8.8.3.` ' ' ' ' ' } ` ` ` +.1.5.5.4.,.F m V +.*.=.6.5.6.8.8.8.8.8.8.8.8.8.8.8.8.8.8.8.8.8.8.8.8.8.8.8.",
"8.8.8.8.8.8.8.8.8.8.8.8.8.8.6.#.| | ] ] Y A C V S b [ 6.3.3.5.6.t 2 t D +.-.5.5.4.6.8.8.8.8.8.6.8.8.8.8.8.8.8.8.8.8.8.8.8.8.8.8.",
"8.8.8.8.8.8.8.8.8.8.8.8.8.8.2...| { ] T C k f g c 4 V 4.,.3.8.:.- * 2 m [ 3.8.5.4.8.8.8.6.8.8.8.8.8.8.8.8.8.8.8.8.8.8.8.8.8.8.8.",
"8.8.8.8.8.8.8.8.8.8.8.8.8.8.:.G A A A Y Y Y A Z v 4 v $.2.6.6.F * * 2 j ~ <.5.,.2.6.8.8.6.8.8.8.8.8.8.8.8.8.8.8.8.8.8.8.8.8.8.8.",
"8.8.8.8.8.8.8.8.8.8.8.8.8.8.2.#.Z Z A ^ ] { +.+.X.B S +.,.5.>.b o % ; w C >.5.,.2.7.8.8.8.8.8.8.8.8.8.8.8.8.8.8.8.8.8.8.8.8.8.8.",
"8.8.8.8.8.8.8.8.8.8.8.6.7.8.6.2.+.+.+.*.*.=.2.4.2.$.' [ ,.8.>.Z X O ; 9 j | 5.2.2.7.8.8.8.8.8.8.8.8.8.8.8.8.8.8.8.8.8.8.8.8.8.8.",
"8.8.8.8.8.8.8.8.8.8.8.8.6.8.8.6.7.6.3.3.<.3.4.7.2.4.X.F $.8.2.[ = : 0 d f { 5.,.3.6.8.8.8.8.8.8.8.8.8.8.8.8.8.8.8.8.8.8.8.8.8.8.",
"8.8.8.8.8.8.8.8.8.8.8.8.8.8.8.8.7.8.6.5.5.8.7.6.8.4.:.+.>.1.<.*.6 g B A D ( +.3.>.>.1.5.8.8.8.8.8.8.8.8.8.8.8.8.8.8.8.8.8.8.8.8.",
"8.8.8.8.8.8.8.8.8.8.8.8.8.8.6.8.6.8.7.8.8.6.8.6.8.5.>.+.>.1.>.*.D ( @.%.o.) { o.` } >.7.8.8.8.8.8.8.8.8.8.8.8.8.8.8.8.8.8.8.8.8.",
"8.8.8.8.8.8.8.8.8.7.8.8.8.8.8.8.8.8.8.8.8.8.8.8.5.8.1.$.*.>.*.*.$.,.3.5.2.*.@.{ ` ' :.5.8.8.8.8.8.8.8.8.8.8.8.8.8.8.8.8.8.8.8.8.",
"8.8.8.8.8.8.8.8.8.8.8.6.8.8.8.8.6.8.8.8.8.8.8.8.8.5.,.O.[ } %.| $.=.3.5.6.5.2.=.:.>.5.8.8.8.8.8.8.8.8.8.8.8.8.8.8.8.8.8.8.8.8.8.",
"8.8.8.8.8.8.8.8.6.8.8.8.8.8.8.8.7.8.8.8.8.6.8.6.5.7.2.+.{ X.o.+.,.,.,.7.8.8.8.8.5.8.5.5.8.8.8.8.8.8.8.8.8.8.8.8.8.8.8.8.8.8.8.8.",
"8.8.8.8.8.8.8.8.8.8.8.8.7.8.7.8.6.8.5.5.7.8.7.8.8.8.6.,.*.=.=.=.6.7.6.6.8.8.8.8.8.8.8.8.5.8.8.8.8.8.8.8.8.8.8.8.8.8.8.8.8.8.8.8.",
"8.8.8.8.8.8.8.8.8.8.8.8.8.5.8.8.8.8.8.8.8.8.8.8.6.8.7.5.3.5.5.<.8.8.8.8.8.6.5.8.5.8.8.5.8.5.5.8.8.8.8.8.8.8.8.8.8.8.8.8.8.8.8.8.",
"8.8.8.8.8.8.8.8.8.8.8.8.8.8.8.8.8.8.8.8.8.8.8.8.6.8.8.5.8.8.8.6.6.8.8.8.8.8.8.8.6.8.8.8.8.8.8.8.8.8.8.8.8.8.8.8.8.8.8.8.8.8.8.8."
};
